<?xml version="1.0" standalone="no"?>
<!DOCTYPE svg PUBLIC "-//W3C//DTD SVG 20010904//EN"
 "http://www.w3.org/TR/2001/REC-SVG-20010904/DTD/svg10.dtd">
<svg version="1.0" xmlns="http://www.w3.org/2000/svg"
 width="1200.000000pt" height="1200.000000pt" viewBox="0 0 1200.000000 1200.000000"
 preserveAspectRatio="xMidYMid meet">

<g transform="translate(0.000000,1200.000000) scale(0.100000,-0.100000)"
fill="#fff" stroke="none">
<path d="M6015 8321 c-71 -30 -89 -128 -34 -187 65 -69 191 -16 191 80 0 85
-79 139 -157 107z m79 -67 c9 -8 16 -25 16 -36 0 -26 -27 -58 -48 -58 -25 0
-52 31 -52 61 0 44 53 65 84 33z"/>
<path d="M5454 8296 c-152 -69 -200 -257 -100 -391 14 -19 12 -25 -25 -80
-128 -188 -199 -419 -199 -649 0 -318 117 -603 335 -820 207 -205 449 -314
762 -341 63 -5 73 -4 82 12 18 35 -2 46 -108 54 -492 38 -892 393 -991 879
-30 144 -24 339 14 485 29 110 93 252 156 345 l41 60 31 -16 c19 -10 57 -17
92 -17 252 -1 346 312 137 456 -38 26 -55 31 -120 34 -51 2 -86 -1 -107 -11z
m205 -84 c52 -42 74 -85 74 -145 2 -141 -146 -232 -271 -168 -141 72 -134 270
13 338 50 23 140 11 184 -25z"/>
<path d="M6960 8076 c-40 -13 -80 -66 -80 -107 0 -128 173 -156 219 -36 33 88
-49 172 -139 143z m75 -76 c22 -25 13 -66 -18 -76 -29 -10 -49 -6 -64 14 -42
54 36 113 82 62z"/>
<path d="M6122 7890 c-249 -34 -465 -190 -577 -415 -54 -109 -75 -203 -75
-336 0 -130 21 -223 76 -334 89 -182 241 -315 434 -380 407 -136 846 92 965
500 75 258 20 508 -159 718 -150 176 -427 279 -664 247z m323 -94 c131 -45
243 -125 322 -231 44 -58 103 -164 103 -185 0 -6 -108 -11 -306 -12 -284 -3
-308 -4 -318 -21 -9 -15 -7 -21 9 -33 17 -13 66 -14 328 -11 187 3 310 1 313
-5 3 -5 8 -36 11 -69 l6 -59 -264 -2 -264 -3 0 -25 0 -25 263 -3 262 -2 0 -41
c0 -103 -80 -289 -168 -389 -128 -146 -316 -230 -518 -230 -164 0 -295 43
-426 140 -49 37 -158 156 -158 174 0 3 68 6 150 6 125 0 152 3 156 15 4 8 1
22 -6 30 -10 12 -44 15 -177 15 l-164 0 -18 43 -18 42 316 5 316 5 3 28 3 27
-329 0 -329 0 -7 38 c-11 67 -6 216 9 280 8 34 31 98 51 142 l37 80 199 0
c168 0 200 2 204 15 15 38 -12 44 -185 47 l-166 3 57 55 c65 63 140 111 228
147 90 36 132 42 270 39 107 -2 137 -6 205 -30z"/>
<path d="M6010 6815 c-7 -8 -10 -22 -6 -30 4 -12 26 -15 116 -15 90 0 112 3
116 15 14 34 -15 45 -116 45 -74 0 -101 -4 -110 -15z"/>
<path d="M4953 7850 c-28 -11 -63 -67 -63 -98 0 -63 54 -122 110 -122 37 0 90
31 107 63 21 41 12 103 -20 135 -27 27 -96 39 -134 22z m92 -70 c15 -16 17
-26 9 -47 -13 -37 -37 -50 -68 -35 -37 17 -45 60 -16 84 29 23 52 23 75 -2z"/>
<path d="M4965 6349 c-29 -15 -56 -54 -61 -92 -7 -39 27 -95 70 -115 38 -19
93 -7 128 28 23 24 28 37 28 77 -1 50 -17 80 -57 102 -26 13 -80 13 -108 0z
m86 -59 c28 -15 25 -65 -5 -85 -38 -25 -76 -3 -76 46 0 44 37 62 81 39z"/>
<path d="M6945 6271 c-35 -15 -57 -49 -62 -93 -5 -54 12 -87 58 -112 117 -63
227 100 128 189 -21 20 -94 29 -124 16z m85 -69 c29 -24 21 -67 -16 -84 -31
-15 -55 -2 -68 35 -8 21 -6 31 9 47 23 25 46 25 75 2z"/>
<path d="M6970 5731 c-41 -13 -104 -48 -122 -68 -59 -65 -88 -206 -88 -418 1
-145 19 -253 53 -322 45 -88 107 -122 238 -130 160 -10 256 41 315 170 l29 62
0 240 0 240 -29 63 c-36 78 -99 136 -169 157 -53 16 -184 19 -227 6z m192
-198 c11 -10 24 -26 30 -36 15 -29 26 -221 18 -337 -10 -157 -35 -190 -144
-190 -105 0 -131 68 -124 335 4 175 15 215 69 243 33 18 125 9 151 -15z"/>
<path d="M7745 5731 c-124 -31 -184 -127 -204 -326 -11 -113 -1 -348 17 -410
41 -139 136 -205 292 -205 137 0 229 49 282 152 l33 63 0 260 0 260 -32 61
c-38 73 -88 116 -162 138 -56 16 -172 20 -226 7z m175 -189 c55 -27 69 -82 70
-273 0 -242 -21 -290 -133 -297 -52 -3 -66 0 -89 18 -42 32 -51 84 -50 281 1
196 13 248 61 274 36 20 99 18 141 -3z"/>
<path d="M2892 5718 c-9 -9 -12 -125 -12 -460 l0 -448 23 -5 c13 -4 50 -5 82
-3 l60 3 6 65 c4 36 7 155 8 265 l1 199 33 -54 c19 -30 60 -99 92 -154 33 -54
65 -100 72 -103 35 -14 62 8 101 80 46 85 133 237 136 237 2 0 4 -118 5 -262
1 -144 4 -266 7 -270 7 -11 135 -10 152 1 17 11 18 887 0 908 -14 17 -119 17
-140 1 -19 -15 -115 -175 -188 -312 -29 -53 -55 -96 -60 -96 -4 0 -34 53 -66
118 -74 147 -141 262 -166 285 -24 20 -127 24 -146 5z"/>
<path d="M3852 5718 c-9 -9 -12 -125 -12 -459 0 -508 -10 -459 95 -459 51 0
66 4 73 18 5 9 10 214 11 454 3 428 2 437 -18 447 -27 15 -134 14 -149 -1z"/>
<path d="M4154 5715 c-3 -8 42 -111 101 -230 l108 -215 -33 -75 c-18 -41 -50
-105 -72 -142 -68 -116 -109 -204 -106 -226 3 -20 10 -22 79 -25 l77 -3 30 36
c16 20 49 81 72 136 23 55 46 101 50 104 4 2 33 -52 65 -121 32 -69 68 -132
79 -140 23 -16 152 -20 175 -5 11 7 -9 52 -93 212 -59 112 -110 216 -113 231
-4 20 19 75 96 231 56 112 101 214 101 226 0 20 -5 21 -78 21 -47 0 -85 -5
-94 -12 -9 -7 -43 -66 -76 -131 l-59 -118 -57 115 c-31 63 -66 122 -78 131
-31 21 -166 21 -174 0z"/>
<path d="M4880 5715 c-9 -11 -1 -34 44 -117 30 -57 80 -156 110 -220 l55 -117
-63 -123 c-35 -68 -84 -161 -109 -208 -67 -124 -65 -130 50 -130 59 0 67 3 93
30 15 16 46 74 69 127 60 142 55 140 96 48 90 -200 95 -205 197 -205 59 0 80
4 84 14 3 8 -39 100 -93 203 -54 103 -105 202 -112 220 -13 31 -10 38 94 247
60 121 105 223 101 231 -8 23 -147 21 -174 -2 -11 -10 -46 -69 -78 -132 l-57
-113 -59 120 c-32 67 -67 126 -77 132 -31 16 -156 13 -171 -5z"/>
<path d="M6047 5718 c-16 -12 -17 -50 -17 -457 0 -346 3 -447 12 -453 17 -10
145 -10 152 1 3 4 6 83 8 175 1 91 4 166 7 166 3 0 15 -14 26 -30 111 -164
214 -301 233 -310 25 -11 150 -14 176 -4 24 9 19 33 -17 78 -73 89 -207 279
-207 292 0 8 8 14 18 14 27 0 116 55 145 90 53 62 70 176 43 278 -19 71 -52
112 -117 145 -54 27 -57 27 -250 27 -140 0 -200 -4 -212 -12z m351 -172 c58
-30 77 -126 34 -168 -20 -20 -34 -23 -126 -26 l-103 -4 2 104 c1 56 3 104 4
106 5 9 167 0 189 -12z"/>
<path d="M8342 5717 c-18 -21 -17 -897 0 -908 7 -5 43 -9 80 -9 55 0 68 3 72
18 3 9 6 128 8 264 2 137 5 248 8 248 3 0 32 -48 65 -105 121 -211 122 -213
168 -201 15 3 34 24 52 58 15 29 53 98 84 153 l56 100 6 -256 c4 -141 10 -262
13 -268 8 -12 123 -15 150 -5 14 5 16 55 16 453 0 334 -3 450 -12 459 -14 14
-112 16 -138 2 -10 -5 -35 -40 -56 -77 -20 -38 -48 -82 -60 -98 -13 -17 -27
-39 -31 -50 -13 -32 -105 -196 -108 -193 -2 2 -33 64 -70 137 -77 153 -139
260 -163 279 -21 16 -126 16 -140 -1z"/>
</g>
</svg>
